<?xml version="1.0" standalone="no"?>
<!DOCTYPE svg PUBLIC "-//W3C//DTD SVG 20010904//EN"
 "http://www.w3.org/TR/2001/REC-SVG-20010904/DTD/svg10.dtd">
<svg version="1.0" xmlns="http://www.w3.org/2000/svg"
 width="500.000000pt" height="500.000000pt" viewBox="0 0 500.000000 500.000000"
 preserveAspectRatio="xMidYMid meet">

<g transform="translate(0.000000,500.000000) scale(0.100000,-0.100000)"
fill="#000000" stroke="none">
<path d="M2460 4977 c-3 -3 -73 -11 -155 -17 -83 -6 -172 -16 -200 -21 -86
-18 -218 -49 -275 -65 -59 -17 -63 -18 -130 -44 -25 -10 -72 -28 -105 -40 -33
-12 -111 -46 -173 -76 -62 -30 -117 -54 -123 -54 -5 0 -9 -4 -9 -10 0 -5 -5
-10 -10 -10 -6 0 -36 -16 -66 -35 -30 -19 -58 -35 -63 -35 -5 0 -11 -4 -13 -8
-1 -4 -34 -30 -73 -57 -209 -146 -408 -345 -561 -560 -32 -44 -61 -81 -66 -83
-4 -2 -8 -8 -8 -14 0 -5 -8 -22 -19 -36 -10 -15 -31 -49 -46 -77 -74 -132 -95
-174 -95 -189 0 -9 -4 -16 -10 -16 -5 0 -10 -7 -10 -15 0 -8 -4 -23 -9 -33
-11 -21 -21 -47 -56 -137 -15 -38 -31 -78 -36 -87 -5 -10 -9 -29 -9 -42 0 -14
-4 -27 -9 -30 -5 -3 -11 -20 -14 -38 -3 -18 -13 -64 -22 -103 -10 -38 -21 -92
-26 -120 -4 -27 -10 -63 -13 -80 -7 -39 -18 -269 -18 -360 0 -100 18 -349 31
-420 6 -33 19 -96 31 -139 11 -44 20 -89 20 -102 0 -13 4 -26 10 -29 5 -3 10
-22 10 -41 0 -19 3 -34 8 -34 4 0 16 -24 26 -52 10 -29 27 -73 38 -98 11 -25
24 -54 28 -65 44 -109 98 -218 149 -295 9 -14 23 -38 31 -55 8 -16 20 -35 25
-41 6 -6 21 -27 35 -47 14 -20 28 -37 33 -37 4 0 7 -6 7 -13 0 -30 312 -360
394 -416 11 -9 36 -30 55 -48 19 -18 40 -33 48 -33 7 0 13 -3 13 -7 0 -5 16
-19 35 -32 19 -13 47 -34 62 -47 16 -13 34 -24 41 -24 11 0 90 -47 102 -61 3
-3 20 -12 38 -20 17 -8 32 -17 32 -21 0 -5 8 -8 18 -9 9 0 31 -9 47 -20 17
-10 37 -21 45 -25 8 -3 32 -14 53 -25 22 -10 47 -19 57 -19 11 0 22 -4 25 -10
3 -5 15 -10 26 -10 10 0 19 -4 19 -10 0 -5 16 -12 35 -16 19 -3 35 -10 35 -15
0 -5 13 -9 29 -9 17 0 33 -4 36 -10 3 -5 19 -10 36 -10 16 0 29 -4 29 -10 0
-5 20 -10 44 -10 25 0 48 -4 51 -10 3 -5 24 -10 45 -10 21 0 45 -7 54 -15 10
-10 35 -15 75 -15 33 0 63 -5 66 -10 4 -6 64 -10 149 -10 109 0 147 -3 162
-15 25 -19 70 -19 78 0 4 12 30 15 146 15 87 0 140 4 140 10 0 6 28 10 64 10
39 0 66 4 68 11 2 6 27 14 56 17 29 2 55 9 58 13 3 5 23 9 44 9 21 0 42 5 45
10 3 6 19 10 36 10 16 0 29 5 29 10 0 6 16 10 35 10 19 0 35 5 35 10 0 6 14
10 30 10 17 0 30 4 30 9 0 4 21 16 48 25 26 10 55 21 64 27 10 5 25 9 33 9 8
0 15 5 15 10 0 6 8 10 18 10 10 0 22 4 28 9 16 16 145 81 160 81 8 0 14 4 14
8 0 5 16 17 35 28 19 10 35 22 35 26 0 5 9 8 20 8 11 0 20 4 20 8 0 5 12 15
27 23 16 8 34 20 41 27 8 6 35 26 60 44 26 17 54 39 62 48 8 9 33 29 54 46 46
34 262 248 291 288 11 16 31 40 45 56 30 33 88 112 114 154 10 17 22 33 27 34
5 2 9 12 9 23 0 10 4 19 8 19 5 0 17 16 28 35 10 19 22 35 26 35 5 0 8 6 8 14
0 15 65 144 81 161 5 5 9 17 9 27 0 10 5 18 10 18 6 0 10 7 10 15 0 8 4 23 9
33 5 9 21 49 36 87 15 39 31 78 36 87 5 10 9 27 9 37 0 11 5 23 10 26 6 3 10
22 10 41 0 19 5 34 10 34 6 0 10 18 10 39 0 22 4 42 9 45 4 3 11 29 13 58 3
29 11 54 17 56 7 2 11 29 11 67 0 39 4 65 12 67 16 6 16 654 0 670 -7 7 -12
40 -12 74 0 37 -5 64 -11 66 -6 2 -14 27 -17 56 -2 29 -9 55 -13 58 -5 3 -9
23 -9 45 0 21 -4 39 -10 39 -5 0 -10 16 -10 35 0 19 -4 35 -9 35 -5 0 -12 8
-14 18 -4 16 -5 16 -6 0 0 -10 -5 -18 -11 -18 -5 0 -10 -5 -10 -11 0 -11 -89
-121 -102 -127 -5 -2 -8 -9 -8 -15 -1 -7 -21 -34 -45 -61 -25 -28 -45 -53 -45
-58 0 -4 -13 -22 -30 -40 -26 -27 -33 -38 -32 -58 0 -11 13 -108 22 -170 12
-83 13 -340 1 -411 -5 -30 -12 -81 -16 -114 -3 -33 -11 -80 -16 -105 -6 -25
-13 -63 -16 -85 -3 -22 -9 -44 -14 -49 -5 -6 -9 -19 -9 -30 0 -20 -36 -117
-70 -191 -10 -22 -26 -60 -35 -85 -27 -73 -76 -170 -86 -170 -5 0 -9 -4 -9
-10 0 -5 -16 -34 -35 -64 -19 -30 -35 -59 -35 -65 0 -5 -3 -11 -8 -13 -4 -2
-25 -28 -47 -58 -22 -30 -55 -70 -72 -88 -18 -18 -33 -37 -33 -42 0 -21 -243
-250 -330 -311 -19 -13 -43 -32 -54 -41 -11 -10 -23 -18 -27 -18 -4 0 -37 -20
-73 -44 -65 -44 -204 -115 -306 -156 -30 -12 -62 -26 -71 -30 -9 -5 -33 -12
-53 -15 -20 -4 -39 -11 -42 -16 -3 -5 -18 -9 -34 -9 -16 0 -31 -4 -34 -9 -3
-5 -23 -11 -43 -14 -21 -3 -63 -11 -93 -17 -121 -25 -193 -32 -370 -37 -222
-6 -327 5 -565 57 -22 5 -53 12 -70 15 -45 10 -214 76 -221 86 -3 5 -14 9 -24
9 -17 0 -167 67 -180 80 -3 3 -21 14 -40 24 -67 36 -186 120 -270 190 -91 75
-270 250 -270 264 0 4 -22 33 -50 63 -27 29 -50 57 -50 60 0 3 -11 19 -25 35
-14 16 -25 34 -25 40 0 5 -8 19 -18 30 -25 27 -52 71 -52 84 0 6 -9 20 -20 32
-11 12 -20 30 -20 40 0 10 -4 18 -10 18 -5 0 -10 9 -10 20 0 11 -4 20 -10 20
-5 0 -12 11 -16 25 -3 14 -10 25 -15 25 -5 0 -9 14 -9 30 0 17 -4 30 -10 30
-5 0 -10 9 -10 19 0 11 -4 23 -10 26 -5 3 -10 16 -10 29 0 12 -5 27 -12 34
-15 15 -38 80 -38 109 0 12 -4 25 -10 28 -5 3 -10 21 -10 40 0 19 -4 37 -10
40 -5 3 -10 26 -10 50 0 24 -4 47 -10 50 -5 3 -10 30 -10 58 0 29 -7 74 -15
101 -21 70 -21 416 0 476 8 23 15 67 15 96 0 30 5 54 10 54 6 0 10 23 10 50 0
28 5 50 10 50 6 0 10 18 10 40 0 22 5 40 10 40 6 0 10 15 10 34 0 19 5 38 10
41 6 3 10 15 10 25 0 10 7 25 15 34 8 8 15 26 15 40 0 14 5 26 10 26 6 0 10
11 10 25 0 14 5 25 10 25 6 0 10 8 10 18 0 22 27 79 41 87 5 4 9 15 9 26 0 10
4 19 8 19 5 0 14 16 22 35 8 19 17 35 22 35 4 0 8 9 8 20 0 11 3 20 8 20 4 0
16 16 26 35 11 19 23 35 28 35 4 0 8 6 8 13 0 7 16 32 35 54 19 23 35 44 35
48 0 3 6 12 12 20 7 7 31 35 53 61 51 63 186 198 249 249 26 22 54 46 61 53 8
6 17 12 20 12 4 0 25 16 48 35 22 19 47 35 54 35 7 0 13 4 13 8 0 5 16 17 35
28 19 10 35 22 35 26 0 5 9 8 20 8 11 0 20 5 20 10 0 6 7 10 15 10 8 0 15 5
15 10 0 6 9 10 20 10 11 0 20 5 20 10 0 6 9 10 20 10 11 0 20 4 20 8 0 10 71
42 93 42 10 0 17 5 17 10 0 6 11 10 25 10 14 0 25 5 25 10 0 6 12 10 26 10 14
0 32 7 40 15 9 8 24 15 34 15 10 0 22 5 25 10 3 6 19 10 35 10 16 0 32 5 35
10 3 6 21 10 40 10 19 0 37 5 40 10 3 6 26 10 50 10 24 0 47 5 50 10 3 6 28
10 54 10 26 0 70 7 97 15 70 21 414 21 474 0 23 -8 69 -15 101 -15 32 0 61 -4
64 -10 3 -5 24 -10 45 -10 21 0 42 -4 45 -10 3 -5 24 -10 45 -10 21 0 42 -4
45 -10 3 -5 19 -10 35 -10 16 0 32 -4 35 -10 8 -13 61 -13 87 1 12 6 31 21 43
33 26 26 84 74 121 101 15 11 40 31 55 45 38 33 50 43 79 63 18 12 20 17 8 17
-9 0 -18 3 -20 8 -1 4 -34 18 -73 31 -38 13 -93 34 -121 47 -28 13 -60 24 -72
24 -11 0 -23 4 -26 9 -3 4 -25 11 -48 14 -24 3 -83 15 -133 27 -139 32 -173
38 -275 45 -52 4 -97 9 -100 10 -11 6 -205 17 -210 12z"/>
<path d="M4215 4302 c-56 -5 -73 -12 -106 -43 -275 -255 -286 -266 -379 -369
-41 -45 -111 -120 -155 -167 -44 -47 -89 -96 -100 -111 -11 -14 -41 -48 -66
-76 -25 -28 -78 -91 -118 -141 -39 -49 -88 -110 -109 -134 -20 -24 -43 -54
-51 -65 -8 -12 -18 -23 -21 -26 -11 -9 -226 -304 -280 -384 -8 -13 -28 -42
-45 -66 -16 -24 -38 -57 -49 -74 -10 -17 -22 -32 -27 -34 -5 -2 -9 -8 -9 -14
0 -5 -10 -24 -22 -41 -13 -18 -31 -48 -42 -67 -25 -48 -46 -70 -66 -70 -9 0
-51 35 -92 78 -77 78 -166 162 -174 162 -4 0 -17 10 -78 61 -17 14 -65 48
-106 75 -41 27 -77 51 -80 54 -28 29 -122 33 -596 31 -90 -1 -88 0 -114 -88
-13 -42 -12 -44 16 -68 16 -14 34 -25 41 -25 6 0 20 -11 31 -25 11 -14 25 -25
31 -25 6 0 11 -4 11 -10 0 -5 6 -10 14 -10 7 0 26 -12 42 -28 16 -15 47 -41
69 -57 43 -33 159 -140 209 -194 17 -18 54 -57 81 -86 28 -28 59 -64 70 -79
11 -16 34 -43 50 -60 17 -17 43 -49 60 -71 16 -22 37 -49 47 -59 10 -11 24
-32 30 -48 7 -15 16 -28 20 -28 4 0 15 -15 24 -32 9 -18 25 -40 35 -49 11 -9
19 -24 19 -33 0 -9 4 -16 8 -16 5 0 17 -16 28 -35 10 -19 22 -35 26 -35 5 0 8
-5 8 -11 0 -6 13 -30 30 -54 17 -24 30 -46 30 -48 0 -3 16 -33 35 -67 19 -34
35 -68 35 -76 0 -8 3 -14 8 -14 8 0 10 -3 65 -114 20 -41 37 -81 38 -88 1 -22
43 -93 54 -92 5 1 23 28 40 60 16 33 33 61 38 62 4 2 7 12 7 23 0 10 5 19 10
19 6 0 10 9 10 20 0 11 4 20 9 20 5 0 12 11 15 25 4 14 11 25 16 25 6 0 10 9
10 20 0 11 5 20 10 20 6 0 10 9 10 20 0 11 3 20 8 20 4 0 16 19 27 41 32 67
39 79 47 79 5 0 8 9 8 20 0 11 5 20 10 20 6 0 10 9 10 20 0 11 5 20 10 20 6 0
10 5 10 12 0 6 11 26 25 44 14 18 25 40 25 48 0 9 3 16 8 16 4 0 13 15 21 33
8 17 24 46 37 64 13 17 24 36 24 42 0 6 5 11 10 11 6 0 10 9 10 20 0 11 5 20
10 20 6 0 10 7 10 15 0 8 3 15 8 15 4 0 16 18 26 40 10 22 27 48 37 59 11 11
19 27 19 36 0 8 5 15 10 15 6 0 10 7 10 15 0 8 3 15 8 15 7 0 25 30 38 63 3 9
10 17 15 17 5 0 9 7 9 15 0 8 5 15 10 15 6 0 10 9 10 20 0 11 4 20 8 20 5 0
17 16 28 35 10 19 22 35 26 35 5 0 8 5 8 11 0 6 20 40 45 76 25 35 45 68 45
73 0 6 5 10 10 10 6 0 10 7 10 15 0 8 4 15 9 15 5 0 14 14 21 30 7 17 23 39
36 49 13 11 24 26 24 35 0 9 4 16 9 16 5 0 16 15 24 33 9 18 25 41 37 52 11
10 20 24 20 32 0 7 5 13 10 13 6 0 10 7 10 15 0 8 3 15 8 15 4 0 21 21 37 45
17 25 33 45 38 45 4 0 7 6 7 13 0 6 14 28 30 47 16 19 30 38 30 42 0 4 11 18
25 32 14 14 25 30 25 36 0 5 5 10 10 10 6 0 10 6 10 13 0 7 16 28 35 47 19 19
35 40 35 47 0 7 5 13 10 13 6 0 10 5 10 10 0 6 11 22 25 36 14 14 25 29 25 33
0 4 12 21 28 37 15 16 40 47 56 69 17 22 38 47 48 56 10 9 18 20 18 23 0 4 6
13 13 21 6 7 26 30 42 51 17 20 40 47 53 60 12 13 22 27 22 31 0 4 19 28 43
53 23 25 60 68 82 95 22 28 59 69 82 93 24 24 43 47 43 52 0 4 28 37 63 72 34
35 74 80 88 99 15 19 41 49 58 66 17 18 31 35 31 39 0 5 -514 2 -575 -4z"/>
</g>
</svg>
